<svg width="20" height="20" viewBox="0 0 8 8" fill="none" xmlns="http://www.w3.org/2000/svg">
<path d="M4 0C1.7944 0 0 1.7944 0 4C0 6.2056 1.7944 8 4 8C6.2056 8 8 6.2056 8 4C8 1.7944 6.2056 0 4 0ZM4 7.14887C2.26373 7.14887 0.85105 5.73635 0.85105 4C0.85105 2.26365 2.26373 0.851132 4 0.851132C5.73627 0.851132 7.14895 2.26365 7.14895 4C7.14895 5.73635 5.73627 7.14887 4 7.14887Z" fill="#2F3542"/>
<path d="M6.08523 3.87651H4.28761V1.71513C4.28761 1.53324 4.14015 1.38577 3.95826 1.38577C3.77637 1.38577 3.62891 1.53324 3.62891 1.71513V4.20586C3.62891 4.38775 3.77637 4.53522 3.95826 4.53522H6.08523C6.26711 4.53522 6.41458 4.38775 6.41458 4.20586C6.41458 4.02398 6.26711 3.87651 6.08523 3.87651Z" fill="#2F3542"/>
</svg>
