<svg width="42" height="42" viewBox="0 0 42 42" fill="none" xmlns="http://www.w3.org/2000/svg">
<rect x="0.5" y="0.5" width="41" height="41" rx="2.5" fill="white" stroke="black"/>
<path d="M24.7543 13.101H13.8536C12.8308 13.101 12 13.9317 12 14.9546V30.595C12 31.6178 12.8308 32.4486 13.8536 32.4486H24.7543C25.7772 32.4486 26.608 31.6178 26.608 30.595V14.9546C26.6031 13.9317 25.7724 13.101 24.7543 13.101ZM25.3066 30.5902C25.3066 30.8975 25.0569 31.1472 24.7495 31.1472H13.8488C13.5415 31.1472 13.2918 30.8975 13.2918 30.5902V14.9546C13.2918 14.6473 13.5415 14.3975 13.8488 14.3975H24.7495C25.0569 14.3975 25.3066 14.6473 25.3066 14.9546V30.5902Z" fill="black"/>
<path d="M28.9223 9H18.0216C16.9987 9 16.168 9.83076 16.168 10.8536C16.168 11.2138 16.4561 11.5019 16.8163 11.5019C17.1764 11.5019 17.4645 11.2138 17.4645 10.8536C17.4645 10.5463 17.7142 10.2966 18.0216 10.2966H28.9223C29.2296 10.2966 29.4794 10.5463 29.4794 10.8536V26.494C29.4794 26.8013 29.2296 27.0511 28.9223 27.0511C28.5622 27.0511 28.274 27.3392 28.274 27.6993C28.274 28.0595 28.5622 28.3476 28.9223 28.3476C29.9452 28.3476 30.7759 27.5169 30.7759 26.494V10.8536C30.7759 9.83076 29.9452 9 28.9223 9Z" fill="black"/>
</svg>
