<svg width="42" height="43" viewBox="0 0 42 43" fill="none" xmlns="http://www.w3.org/2000/svg">
<rect width="42" height="42" rx="3" fill="#2244FC"/>
<path d="M32.2508 5.45883L27.4527 5.45113C22.0623 5.45113 18.5787 9.02515 18.5787 14.5569V18.7553H13.7545C13.3376 18.7553 13 19.0932 13 19.5101V25.5931C13 26.0099 13.338 26.3475 13.7545 26.3475H18.5787V41.6967C18.5787 42.1136 18.9163 42.4512 19.3332 42.4512H25.6274C26.0443 42.4512 26.3819 42.1132 26.3819 41.6967V26.3475H32.0226C32.4394 26.3475 32.777 26.0099 32.777 25.5931L32.7793 19.5101C32.7793 19.3099 32.6996 19.1182 32.5584 18.9766C32.4171 18.8349 32.2246 18.7553 32.0245 18.7553H26.3819V15.1963C26.3819 13.4857 26.7895 12.6173 29.0178 12.6173L32.2501 12.6161C32.6665 12.6161 33.0041 12.2781 33.0041 11.8617V6.21328C33.0041 5.79718 32.6669 5.4596 32.2508 5.45883Z" fill="white"/>
</svg>
