<svg width="12" height="10" viewBox="0 0 10 8" fill="none" xmlns="http://www.w3.org/2000/svg">
<path d="M9.38612 2.61224H8.81633V1.5889C8.81633 1.34286 8.61616 1.14286 8.37029 1.14286H4.32898L3.51265 0H0.446041C0.200163 0 0 0.200163 0 0.446041V7.57861H0.000979592C0.000163265 7.67053 0.0287347 7.76049 0.0862041 7.83575C0.166204 7.94024 0.287347 8 0.418775 8H7.72637C7.9151 8 8.08131 7.87282 8.12637 7.704L9.79592 3.12637V3.09747C9.79592 2.81633 9.62351 2.61224 9.38612 2.61224ZM0.326531 0.446041C0.326531 0.380082 0.380245 0.326531 0.446041 0.326531H3.34449L4.16082 1.46939H8.37012C8.43608 1.46939 8.48963 1.52294 8.48963 1.5889V2.61224H2.07853C2.05502 2.61224 2.03167 2.6142 2.00898 2.61812C1.85012 2.64473 1.71804 2.76065 1.67869 2.90808L0.326531 6.59575V0.446041ZM7.81535 7.60539C7.80457 7.64539 7.76784 7.67347 7.72637 7.67347H0.418775C0.379102 7.67347 0.355918 7.65078 0.345633 7.63722C0.335347 7.62384 0.31951 7.59543 0.325551 7.57061L1.98939 3.00686C2.00016 2.96686 2.0369 2.93878 2.07837 2.93878H8.81633H9.38612C9.44816 2.93878 9.464 3.02792 9.46808 3.07249L7.81535 7.60539Z" fill="#2F3542"/>
</svg>
