<svg width="42" height="42" viewBox="0 0 42 42" fill="none" xmlns="http://www.w3.org/2000/svg">
<rect width="42" height="42" rx="3" fill="#FD862F"/>
<path d="M29.1922 12H11.8125C10.2611 12 9 13.2611 9 14.8125V26.6909C9 28.2423 10.2611 29.5034 11.8125 29.5034H29.1875C30.7389 29.5034 32 28.2423 32 26.6909V14.8173C32.0047 13.2659 30.7436 12 29.1922 12ZM30.7198 26.6909C30.7198 27.5332 30.0345 28.2185 29.1922 28.2185H11.8125C10.9702 28.2185 10.2849 27.5332 10.2849 26.6909V14.8173C10.2849 13.975 10.9702 13.2897 11.8125 13.2897H29.1875C30.0298 13.2897 30.7151 13.975 30.7151 14.8173V26.6909H30.7198Z" fill="white"/>
<path d="M23.5063 20.6042L29.1314 15.5597C29.3932 15.3218 29.417 14.9172 29.179 14.6507C28.9411 14.389 28.5365 14.3652 28.27 14.6032L20.513 21.5655L18.9996 20.214C18.9949 20.2092 18.9901 20.2044 18.9901 20.1997C18.9568 20.1664 18.9235 20.1378 18.8854 20.1093L12.7273 14.5984C12.4608 14.3604 12.0563 14.3842 11.8184 14.6507C11.5804 14.9172 11.6042 15.3218 11.8707 15.5597L17.5624 20.647L11.8945 25.9532C11.6375 26.1959 11.6233 26.6005 11.866 26.8622C11.9944 26.9954 12.1658 27.0668 12.3371 27.0668C12.4941 27.0668 12.6512 27.0097 12.7749 26.8955L18.5285 21.5131L20.0894 22.9075C20.2132 23.017 20.3654 23.0693 20.5177 23.0693C20.67 23.0693 20.8271 23.0122 20.946 22.9028L22.5498 21.4656L28.27 26.9003C28.3938 27.0192 28.5556 27.0764 28.7126 27.0764C28.884 27.0764 29.0505 27.0097 29.179 26.8765C29.4217 26.6195 29.4122 26.2102 29.1552 25.9675L23.5063 20.6042Z" fill="white"/>
</svg>
