<svg width="17" height="17" viewBox="0 0 17 17" fill="none" xmlns="http://www.w3.org/2000/svg">
<path d="M15.8466 7.48146H9.74574V1.38055C9.74574 1.10263 9.36835 0.5 8.6136 0.5C7.85885 0.5 7.48146 1.10266 7.48146 1.38055V7.4815H1.38055C1.10266 7.48146 0.5 7.85885 0.5 8.61357C0.5 9.36829 1.10266 9.74571 1.38055 9.74571H7.48149V15.8467C7.48149 16.1245 7.85885 16.7272 8.61364 16.7272C9.36842 16.7272 9.74578 16.1245 9.74578 15.8467V9.74571H15.8467C16.1246 9.74571 16.7273 9.36835 16.7273 8.61357C16.7273 7.85879 16.1245 7.48146 15.8466 7.48146Z" fill="rgb(28, 29, 32)"/>
</svg>
