<svg width="11" height="10" viewBox="0 0 11 10" fill="none" xmlns="http://www.w3.org/2000/svg">
<path d="M10.8474 3.80588C10.8248 3.73788 10.7648 3.68828 10.6925 3.67795L7.22313 3.18409L5.67161 0.104821C5.63939 0.040576 5.57265 0 5.49977 0C5.4269 0 5.35996 0.040576 5.32794 0.104821L3.77623 3.18428L0.306893 3.67814C0.234592 3.68847 0.174756 3.73788 0.151934 3.80607C0.129495 3.87388 0.148098 3.94865 0.200454 3.99843L2.71107 6.39542L2.11827 9.78013C2.106 9.85058 2.13553 9.92177 2.19441 9.96385C2.25367 10.0063 2.33211 10.0118 2.39636 9.97813L5.49977 8.38026L8.6028 9.97813C8.63081 9.99259 8.66168 9.99973 8.69218 9.99973C8.73187 9.99973 8.77138 9.98771 8.80494 9.96385C8.86401 9.92177 8.89355 9.85058 8.88108 9.78013L8.28847 6.39561L10.7991 3.99843C10.8513 3.94827 10.8701 3.87369 10.8474 3.80588Z" fill="#FF4E16"/>
</svg>
