<svg width="42" height="42" viewBox="0 0 42 42" fill="none" xmlns="http://www.w3.org/2000/svg">
<rect width="42" height="42" rx="3" fill="#2DC0FF"/>
<path d="M17.7185 30.8457C16.6008 30.8457 15.4504 30.7552 14.2931 30.5738C12.2548 30.254 10.1914 29.1878 9.60754 28.8685L8.07617 28.0313L9.73414 27.486C11.5465 26.8901 12.649 26.5204 14.0137 25.9414C12.6472 25.2797 11.594 24.0892 11.0871 22.5504L10.7013 21.3795L11.0176 21.4278C10.7177 21.1255 10.4809 20.8187 10.2973 20.5396C9.64442 19.548 9.29874 18.3363 9.3723 17.2979L9.44486 16.2758L10.0567 16.5128C9.79862 16.0254 9.61208 15.5048 9.50244 14.9592C9.23525 13.6286 9.45886 12.2149 10.1323 10.9787L10.6653 10.0003L11.3781 10.8565C13.6326 13.5647 16.4881 15.1712 19.8771 15.6415C19.7387 14.6873 19.8424 13.7664 20.1857 12.941C20.5854 11.9799 21.2965 11.1649 22.2414 10.584C23.2909 9.93896 24.5635 9.62642 25.825 9.70391C27.1633 9.78614 28.3784 10.2876 29.3434 11.155C29.8147 11.0326 30.1619 10.9018 30.6312 10.7252C30.9136 10.6189 31.2339 10.4982 31.6345 10.3602L33.1111 9.85141L32.1482 12.6014C32.2117 12.5961 32.2772 12.5915 32.3456 12.5886L33.9223 12.5172L32.9904 13.7909C32.937 13.8638 32.9234 13.8845 32.9044 13.9131C32.8293 14.0263 32.7358 14.1671 31.4567 15.8751C31.1364 16.3028 30.9765 16.8599 31.0063 17.444C31.1197 19.6635 30.8474 21.6717 30.1964 23.4125C29.5808 25.0594 28.6268 26.4725 27.3613 27.6124C25.7952 29.0227 23.7982 29.9884 21.4257 30.4821C20.2619 30.7243 19.0121 30.8457 17.7185 30.8457Z" fill="white"/>
</svg>
